<svg xmlns="http://www.w3.org/2000/svg" xmlns:xlink="http://www.w3.org/1999/xlink" width="500" zoomAndPan="magnify" viewBox="0 0 375 374.999991" height="500" preserveAspectRatio="xMidYMid meet" version="1.0"><defs><clipPath id="4895552a96"><path d="M 9.140625 0 L 366.140625 0 L 366.140625 375 L 9.140625 375 Z M 9.140625 0 " clip-rule="nonzero"/></clipPath></defs><path fill="#000000" d="M 187.652344 92.816406 C 148.214844 92.816406 116.246094 126.367188 116.246094 167.753906 C 116.246094 209.144531 148.214844 242.695312 187.652344 242.695312 C 227.089844 242.695312 259.054688 209.144531 259.054688 167.753906 C 259.054688 126.367188 227.089844 92.816406 187.652344 92.816406 " fill-opacity="1" fill-rule="nonzero"/><g clip-path="url(#4895552a96)"><path fill="#000000" d="M 306.238281 316.835938 C 290.425781 278.265625 257.226562 254.140625 187.542969 254.140625 C 117.949219 254.140625 84.75 278.203125 68.914062 316.6875 C 36.675781 284.039062 16.625 238.226562 16.625 187.5 C 16.625 88.367188 93.195312 8.003906 187.652344 8.003906 C 282.109375 8.003906 358.679688 88.367188 358.679688 187.5 C 358.679688 238.308594 338.5625 284.183594 306.238281 316.835938 Z M 187.652344 0.148438 C 89.0625 0.148438 9.140625 84.03125 9.140625 187.5 C 9.140625 241.617188 31.003906 290.378906 65.96875 324.582031 C 97.851562 355.769531 140.625 374.851562 187.652344 374.851562 C 234.59375 374.851562 277.304688 355.832031 309.171875 324.734375 C 344.226562 290.527344 366.164062 241.703125 366.164062 187.5 C 366.164062 84.03125 286.238281 0.148438 187.652344 0.148438 " fill-opacity="1" fill-rule="nonzero"/></g></svg>